<svg xmlns="http://www.w3.org/2000/svg" width="3000" height="3000" fill="none" viewBox="0 0 3000 3000" id="business-team-is-solving-business-puzzle"><path fill="#31DECD" d="M1037.23 2560.48C948.342 2585.04 855.706 2592.65 763.714 2599.16C633.05 2608.36 502.327 2615.62 371.428 2620.84C325.257 2622.71 278.499 2624.23 233.206 2614.98C210.471 2471.25 198.108 2322.83 196.878 2174.35C196.292 2104.45 198.284 2033.61 217.796 1966.52C237.307 1899.43 276.214 1835.56 335.686 1798.82C396.507 1761.21 471.155 1755.52 542.581 1751.77C727.678 1742.11 916.995 1739.35 1105.49 1800.05C1110.59 1878.57 1121.78 1956.68 1138.95 2033.43C1051.99 2019.43 963.284 2016.73 884.182 2029.74C885.764 2163.92 892.62 2297.98 904.69 2431.58C906.331 2449.74 908.264 2468.55 917.053 2484.55C927.014 2502.71 944.651 2515.19 962.346 2525.91C987.249 2541.09 1013.5 2553.98 1037.23 2560.48Z"></path><path fill="#FFC5A6" d="M895.606 1415.68C893.614 1486.82 884.59 1558.36 860.508 1625.33C854.122 1643.14 846.036 1661.43 830.918 1672.73C822.891 1678.77 813.223 1682.46 803.438 1684.92C783.457 1690.08 762.305 1690.61 742.032 1686.5C738.75 1705.61 733.711 1724.88 727.442 1744.04C723.985 1754.65 720.235 1765.25 716.192 1775.68C712.735 1784.53 708.75 1793.85 700.899 1799.18C695.508 1802.81 688.946 1804.1 682.5 1804.57C648.575 1807.09 616.7 1788.4 590.684 1766.6C577.852 1755.88 565.665 1744.1 557.696 1729.45C549.903 1715.1 546.68 1698.75 544.454 1682.58C539.18 1644.73 539.18 1606.35 539.239 1568.14C539.239 1529.18 527.872 1493.79 536.309 1458.46C544.688 1423.18 559.805 1389.84 576.387 1357.56C594.375 1322.64 615.235 1287.48 647.579 1265.16C672.188 1248.16 701.778 1239.9 731.133 1234.57C749.766 1231.11 769.161 1228.83 787.442 1233.98C811.348 1240.72 829.805 1259.36 846.387 1277.87C862.149 1295.45 877.5 1314.02 886.114 1336C895.957 1361.07 896.368 1388.73 895.606 1415.68Z"></path><path fill="#FF9F6B" d="M742.028 1686.5C738.747 1705.6 733.708 1724.88 727.438 1744.04C680.974 1714.27 667.614 1649.53 667.614 1649.53C711.794 1681.17 742.028 1686.5 742.028 1686.5Z"></path><path fill="#203752" d="M532.562 1642.74C592.972 1611.39 639.379 1554.14 657.719 1491.27C641.429 1488.64 626.664 1477.62 619.574 1462.74C612.484 1447.86 613.129 1429.46 621.39 1415.1C625.082 1408.71 630.414 1402.91 637.387 1400.51C648.402 1396.7 660.941 1402.39 668.383 1411.29C675.824 1420.2 679.34 1431.74 682.211 1443.05C687.367 1463.44 691.234 1484.18 693.637 1505.1C694.984 1516.64 696.39 1529.24 704.711 1537.33C717.015 1512.13 723.754 1484.48 736.058 1459.28C748.305 1434.09 768.051 1410.24 795.18 1403.15C814.398 1398.11 834.672 1402.09 854.535 1401.62C896.957 1400.69 937.562 1378.95 965.394 1346.9C993.226 1314.85 1008.81 1273.36 1009.75 1232.7C978.519 1247.76 940.902 1241.61 909.027 1228.07C877.094 1214.53 848.5 1194.14 816.918 1179.91C783.871 1165.02 747.777 1157 711.566 1156.47C692.816 1156.23 673.832 1157.99 656.254 1164.61C638.676 1171.18 622.621 1182.89 613.07 1201.94C591.332 1192.39 566.429 1184.59 544.222 1192.97C534.027 1196.78 525.355 1203.75 517.679 1211.49C482.406 1247.35 468.871 1299.38 464.652 1349.48C455.805 1452.02 480.824 1557.13 532.562 1642.74Z"></path><path fill="#1B81A6" d="M620.27 2366.9C639.724 2210.68 663.278 2055 690.876 1900.02 674.938 1877.75 658.298 1854.96 638.141 1834.92 642.536 1821.68 646.989 1808.32 654.138 1796.31 661.286 1784.3 671.364 1773.57 684.313 1768.24 697.087 1762.97 711.442 1763.38 725.27 1763.85 734.645 1764.14 744.899 1764.84 747.419 1771.52 753.747 1791.09 760.075 1810.66 764.528 1826.43 758.962 1850.74 750.466 1874.41 741.852 1895.27 748.181 2070.18 754.626 2246.25 792.946 2417.05 794.177 2422.38 795.349 2428.24 793.122 2433.22 791.599 2436.62 788.669 2439.2 785.622 2441.43 763.708 2457.13 733.474 2457.48 708.161 2448.11 682.849 2438.73 661.638 2420.86 642.36 2401.99 629.997 2390.04 619.333 2374.28 620.27 2366.9zM2524.4 2710.72C2645.51 2473.35 2769.03 2220.29 2735.22 2072.34 2724.2 2024.12 2690.28 1983.63 2653.42 1950.7 2611 1912.85 2559.2 1885.48 2504.01 1871.83 2462.58 1861.58 2418.87 1858.71 2380.02 1841.01 2357.52 1830.76 2337.43 1815.82 2315.04 1805.39 2288.33 1792.91 2258.91 1787.16 2231.78 1775.56 2186.78 1756.4 2149.99 1722.24 2115.71 1687.38 2064.61 1635.41 2016.69 1580.27 1973.21 1519.74 1954.28 1549.16 1928.38 1573.3 1907.41 1601.25 1886.43 1629.19 1870.02 1663.47 1874.89 1698.04 1878.29 1722.3 1891.76 1743.8 1905.3 1764.19 1960.44 1847.22 2022.54 1925.62 2088.52 1995.82 2005.32 2194.04 1938.23 2399 1889.6 2619.9 1907 2628.86 2145.88 2710.72 2524.4 2710.72z"></path><path fill="#FFC5A6" d="M2720.92 1460.09C2721.8 1502.51 2702.35 1543.06 2676.86 1576.99C2651.31 1610.85 2619.67 1639.68 2591.31 1671.21C2562.89 1702.85 2537.17 1738.41 2527.09 1779.66C2518.71 1793.2 2511.51 1809.6 2504.24 1825.95C2493.52 1850.33 2481.8 1875.99 2459.77 1890.99C2442.31 1902.94 2420.33 1906.58 2399.12 1906.93C2374.22 1907.28 2348.5 1903.18 2327.52 1889.82C2306.55 1876.4 2291.25 1852.38 2293.24 1827.59C2294.06 1816.81 2297.99 1806.62 2302.21 1796.66C2302.8 1795.31 2303.38 1793.96 2303.97 1792.61C2317.97 1760.09 2332.09 1727.63 2346.1 1695.11C2325.59 1685.68 2307.19 1676.19 2293.83 1661.07C2275.55 1640.21 2269.46 1610.74 2271.8 1583.02C2274.26 1555.37 2284.28 1528.94 2295 1503.34C2323.77 1434.55 2358.28 1368.1 2397.89 1304.88C2453.38 1314.43 2498.15 1326.79 2543.03 1339.1C2580.47 1349.41 2618.09 1359.78 2653.83 1374.96C2675.39 1384.16 2697.31 1396.05 2709.44 1416.03C2717.52 1429.21 2720.63 1444.8 2720.92 1460.09Z"></path><path fill="#FF9F6B" d="M2443.12 1722.08C2412.66 1740.12 2382.19 1758.05 2351.72 1776.1C2336.25 1785.24 2320.08 1794.61 2302.27 1796.67C2302.85 1795.32 2303.44 1793.97 2304.02 1792.62C2318.03 1760.1 2332.15 1727.64 2346.15 1695.12C2367.42 1705.08 2404.1 1716.98 2443.12 1722.08Z"></path><path fill="#203752" d="M2525.33 1784.12C2517.6 1774.33 2512.79 1762.55 2508.99 1750.66 2494.04 1703.84 2493.28 1652.57 2506.82 1605.35 2532.19 1609.51 2562.72 1602.3 2580.88 1581.79 2599.04 1561.29 2601.74 1527.59 2584.4 1506.38 2581.35 1502.69 2577.77 1499.35 2573.61 1497.01 2561.66 1490.21 2546.72 1492.09 2533.6 1496.13 2508.28 1503.98 2485.37 1519.51 2468.67 1540.13 2480.39 1511.89 2482.15 1479.25 2471.6 1450.95 2448.81 1389.84 2376.45 1357.61 2355.18 1295.97 2338.54 1247.69 2358.69 1193.14 2401.47 1152.01 2409.32 1175.56 2427.83 1194.43 2448.93 1207.55 2470.02 1220.68 2493.81 1228.82 2517.31 1236.79 2544.43 1245.99 2571.56 1255.19 2598.69 1264.39 2621.49 1272.12 2644.63 1280.04 2664.26 1293.98 2683.89 1307.93 2699.83 1328.96 2701 1353.45 2747.81 1351.64 2789.53 1391.36 2800.02 1437.07 2810.51 1482.77 2794.63 1531.29 2767.97 1569.78 2741.31 1608.34 2704.63 1638.63 2668.42 1668.39 2621.31 1707.18 2574.26 1745.91 2525.33 1784.12zM2003.55 2525.15C2017.56 2556.67 2029.39 2589.14 2038.94 2622.3 2053.3 2621.3 2065.95 2612.75 2077.73 2604.49 2101.64 2587.79 2125.6 2571.15 2149.51 2554.45 2192.63 2365.19 2242.15 2169.72 2293.59 1974.78 2294.76 1970.33 2295.93 1965.87 2298.16 1961.83 2301.56 1955.62 2307.07 1950.87 2312.4 1946.24 2333.26 1928.43 2354.12 1910.62 2374.98 1892.81 2374.8 1868.67 2374.98 1846.58 2375.15 1824.55 2363.49 1818.22 2350.37 1813.53 2337.01 1809.37 2330.45 1807.32 2323.77 1805.39 2316.91 1805.21 2304.96 1804.98 2293.36 1810.25 2283.92 1817.63 2274.49 1825.01 2266.93 1834.45 2259.43 1843.82 2257.15 1875.05 2255.21 1905.93 2254.04 1935.93 2160.7 2122.96 2075.62 2314.1 2003.55 2525.15z"></path><path fill="#1B81A6" d="M2523.28 1784.24C2518.3 1815.42 2517.36 1847.29 2520.53 1878.7C2450.62 1892.06 2383.71 1920.59 2325.64 1961.72C2328.34 1914.26 2327.05 1867.51 2322.95 1820.98C2292.42 1855.61 2265.47 1893.29 2242.56 1933.31C2235.88 1901.31 2236.58 1869.26 2241.74 1838.03C2268.69 1805.87 2295.35 1775.57 2322.66 1745.87C2326.23 1764.85 2328.98 1781.55 2330.1 1799.89C2394.43 1785.83 2460.76 1781.26 2523.28 1784.24Z"></path><path fill="#203752" d="M1854.91 2008.65C1803.46 1992.95 1745.51 2000.16 1699.52 2027.99C1653.52 2055.76 1620.18 2103.75 1610.1 2156.54C1605.77 2179.4 1605.83 2204.06 1616.55 2224.75C1627.21 2245.26 1647.13 2259.55 1668.23 2269.04C1696.24 2281.64 1727.47 2287.15 1758.17 2284.75C1789.87 2282.29 1829.65 2275.14 1846.53 2302.09C1853.38 2312.99 1853.74 2326.64 1853.79 2339.53C1853.85 2407.44 1849.69 2475.29 1841.26 2542.68C1839.5 2556.74 1836.63 2572.44 1825.02 2580.7C1817.41 2586.1 1807.62 2587.09 1798.31 2587.74C1713.11 2593.77 1627.27 2590.31 1542.84 2577.42C1536.68 2576.49 1530.36 2575.37 1525.38 2571.74C1513.77 2563.13 1515.18 2545.9 1515.94 2531.49C1519.11 2472.6 1488.87 2412.42 1438.36 2381.9C1387.86 2351.37 1319.07 2353.13 1271.55 2388.11C1222.27 2424.38 1201.41 2486.72 1168.42 2538.28C1083.4 2535.59 999.907 2532.54 916.411 2529.49C904.986 2529.08 892.915 2528.44 883.54 2521.94C869.888 2512.5 866.489 2494.1 864.497 2477.64C853.54 2386.88 852.075 2295 860.044 2203.95C910.259 2212.68 957.075 2212.03 1000.08 2197.79C1043.09 2183.56 1082.06 2154.96 1104.79 2115.76C1114.28 2099.42 1120.96 2080.72 1119.2 2061.97C1118.03 2049.26 1113.05 2037.19 1106.84 2026C1086.1 1988.5 1050.65 1959.43 1009.81 1946.37C968.97 1933.3 923.267 1936.47 884.595 1954.98C877.564 1903.18 876.685 1848.58 879.732 1794.14C884.009 1717.97 882.075 1689.49 922.154 1689.49C1035.88 1689.49 1149.56 1682.52 1262.88 1687.97C1249.69 1657.44 1245.59 1622.99 1251.27 1590.24C1254.2 1573.18 1259.95 1556.25 1270.43 1542.54C1291.41 1515.24 1327.8 1504.69 1362.13 1501.93C1395.88 1499.24 1430.63 1502.52 1461.8 1515.76C1492.97 1529.01 1520.4 1552.74 1534.11 1583.67C1548.23 1615.43 1547.23 1651.64 1544.83 1686.27C1616.31 1684.16 1687.74 1680.82 1759.75 1677.66C1806.68 1781.6 1837.8 1892.64 1854.91 2008.65Z"></path><path fill="#31DECD" d="M1973.09 502.851C1908.17 438.926 1838.44 379.863 1764.67 326.426C1739.65 308.261 1712.17 290.097 1681.29 289.336C1639.16 288.222 1603.6 319.277 1574.83 350.097C1535.22 392.519 1499.24 438.34 1467.43 486.914C1461.39 496.054 1455.36 506.133 1455.82 517.09C1456.53 532.617 1469.95 544.16 1482.43 553.418C1512.43 575.683 1544.3 596.894 1565.98 627.304C1606.94 684.785 1600.49 771.211 1551.39 821.894C1502.29 872.578 1416.16 881.953 1357.39 842.871C1330.73 825.117 1304.95 797.578 1273.25 802.09C1254.56 804.726 1239.56 818.261 1226.02 831.386C1160.86 894.609 1100.81 963.105 1046.72 1036C1037.06 1049 1027.09 1064 1029.26 1080.06C1031.08 1093.42 1040.86 1104.08 1050.18 1113.81C1124.18 1190.92 1199.59 1266.68 1276.35 1341.15C1293.23 1357.5 1316.61 1375.08 1337.88 1365.12C1350.77 1359.08 1357.33 1345.08 1364.42 1332.77C1396.23 1277.87 1459.52 1242.13 1522.86 1245.64C1586.2 1249.16 1646.08 1292.99 1666.35 1353.11C1686.63 1413.22 1664.48 1485.7 1612.74 1522.38C1601.25 1530.53 1586.78 1540.49 1588.89 1554.37C1589.95 1561.29 1595.04 1566.74 1599.91 1571.72C1679.3 1652.81 1765.84 1726.99 1858.25 1792.97C1864.75 1797.66 1872.6 1802.52 1880.28 1800.18C1885.14 1798.71 1888.66 1794.67 1891.94 1790.86C1966.35 1703.38 2040.77 1615.9 2115.18 1528.42C2135.8 1504.16 2157.54 1470.64 2141.49 1443.11C2133.64 1429.75 2118.87 1422.42 2105.45 1414.63C2052.13 1383.69 2009.01 1332.66 1995.24 1272.54C1981.47 1212.42 2000.28 1144.1 2047.91 1105.02C2104.93 1058.26 2193.11 1061.84 2254.28 1102.97C2274.73 1116.74 2293.83 1134.55 2318.03 1139.3C2342.23 1144.04 2454.14 1001.84 2495.28 948.808C2506 934.98 2517.25 918.047 2512.04 901.347C2507.41 886.465 2491.76 878.554 2477.76 871.699C2395.84 831.738 2321.96 775.547 2261.61 707.226C2307.84 685.781 2337.78 635.683 2340.06 584.765C2342.35 533.847 2332.04 459.375 2271.51 406.406C2216.9 358.652 2061.57 320.039 1973.09 502.851Z"></path><path fill="#FFC5A6" d="M1131.04 2444.77C1158.99 2442.07 1186.64 2435.51 1212.78 2425.25 1222.62 2421.39 1232.82 2416.93 1243.3 2418.05 1256.19 2419.39 1267.15 2429.36 1272.37 2441.25 1277.58 2453.14 1277.82 2466.68 1276 2479.51 1271.55 2511.45 1254.55 2541.45 1229.48 2561.66 1204.4 2581.87 1171.47 2592.13 1139.36 2589.67 1122.84 2588.38 1105.14 2582.87 1096 2569.1 1084.28 2551.52 1090.49 2527.97 1097.64 2508.05 1105.73 2485.25 1115.92 2461.05 1131.04 2444.77zM1836.1 1573.24C1825.67 1506.21 1808.74 1440.17 1785.71 1376.37 1782.78 1368.34 1779.44 1359.84 1772.52 1354.92 1761.27 1346.89 1744.63 1351.81 1735.26 1361.95 1725.88 1372.09 1721.96 1386.03 1718.33 1399.33 1704.91 1370.04 1659.15 1364.76 1637.17 1388.32 1626.74 1399.51 1621.7 1414.57 1616.9 1429.16 1607.23 1458.69 1597.8 1491.97 1611.92 1519.63 1631.31 1557.65 1684.63 1564.86 1710.65 1598.73 1718.03 1608.34 1723.25 1620.12 1733.38 1626.74 1744.57 1634.06 1759.63 1633.18 1771.88 1627.73 1784.13 1622.28 1794.09 1612.91 1803.46 1603.36 1814.83 1591.87 1825.84 1580.04 1836.1 1573.24z"></path><path fill="#31DECD" d="M526.463 1974.9C628.826 2077.91 683.67 2219.59 780.76 2327.58C797.693 2346.45 816.502 2364.61 839.998 2374.16C851.951 2379.03 864.725 2381.49 877.439 2383.71C968.435 2399.53 1061.37 2404.28 1152.36 2393.67C1161.33 2414.47 1168.01 2428.77 1172.87 2449.75C1174.63 2457.48 1177.5 2466.1 1178.67 2473.95C1180.37 2485.67 1181.31 2498.56 1181.37 2510.39C1181.48 2531.43 1181.6 2554.22 1177.97 2575.02C1175.97 2586.39 1174.86 2598.69 1172.46 2609.65C1171.46 2614.28 1169.94 2615.86 1166.31 2618.03C1152.95 2626.06 1135.13 2628.87 1120.6 2634.38C1101.21 2641.7 1080 2642.11 1059.49 2643.22C1041.09 2644.22 1022.63 2645.45 1004.29 2645.74C995.975 2645.86 988.299 2648.09 979.978 2648.38C970.252 2648.67 960.291 2648.97 950.564 2648.38C925.135 2646.97 899.588 2643.58 874.51 2639.24C865.721 2637.72 856.814 2637.6 847.967 2636.37C837.127 2634.9 826.053 2632.15 815.271 2630.1C791.072 2625.47 766.58 2618.56 743.201 2610.82C717.127 2602.21 693.924 2588.67 668.963 2577.72C647.224 2568.17 625.135 2557.44 606.853 2542.21C579.959 2519.77 557.986 2493.11 534.549 2467.21C515.33 2445.94 496.932 2423.91 477.42 2402.93C452.986 2376.62 435.76 2344.1 416.482 2314.16C409.041 2302.62 400.779 2292.66 394.685 2280.29C386.717 2264.24 375.291 2247.31 372.889 2229.2C365.74 2175.88 384.197 2126.66 409.978 2081.19C426.678 2051.78 440.974 2021.49 464.295 1996.53C481.521 1978.07 503.318 1959.14 527.928 1951.58C525.467 1952.4 523.123 1953.28 526.463 1974.9Z"></path><path fill="#1B81A6" d="M2489.41 2384.36C2375.97 2399.71 2261.54 2411.31 2147.11 2407.5C2105.39 2406.1 2063.2 2402.58 2024 2388.34C1966.35 2367.48 1918.59 2324.53 1883.08 2274.55C1847.58 2224.57 1823.32 2167.56 1801.81 2110.14C1744.22 1956.27 1704.49 1795.72 1683.63 1632.72C1682.69 1625.51 1681.99 1617.6 1686.09 1611.62C1689.08 1607.23 1694.12 1604.77 1698.98 1602.48C1752.36 1577.52 1807.15 1555.61 1862.17 1537.03C1927.26 1685.57 1960.96 1851.68 2062.56 1978.01C2085.17 2006.13 2111.31 2032.15 2142.89 2049.73C2192.17 2077.21 2250.99 2082.13 2307.36 2078.56C2363.67 2074.98 2419.33 2063.5 2475.64 2060.57C2500.55 2059.28 2528.85 2061.1 2545.14 2080.02C2555.1 2091.62 2558.38 2107.5 2560.25 2122.74C2572.15 2219.06 2541.39 2319.85 2489.41 2384.36Z"></path><path fill="#31DECD" d="M744.374 1701.8C765.702 1713.7 778.007 1730.28 789.726 1751.66C787.147 1790.39 780.936 1831.12 769.921 1870.55C753.339 1834.4 731.425 1800.71 705.058 1770.94C673.534 1799.71 651.269 1836.68 637.265 1876.59C589.452 1836.57 544.687 1797.37 500.038 1758.11C511.464 1729.75 527.108 1691.43 543.046 1672.21C568.944 1691.31 631.347 1746.62 706.757 1758.52C723.28 1743.99 734.589 1722.37 744.374 1701.8Z"></path><path fill="#203752" d="M509.001 1768.88C553.708 1799.94 595.31 1835.09 633.513 1873.88C636.033 1876.46 641.013 1875.99 642.712 1872.59C660.466 1836.97 682.263 1803.63 707.869 1773.16C705.115 1773.16 702.361 1773.22 699.607 1773.22C728.083 1797.89 749.822 1829.41 762.185 1864.98C764.119 1870.6 771.501 1870.66 773.494 1865.03C786.208 1829.17 794.06 1791.97 797.283 1754.12C797.927 1746.56 786.208 1746.56 785.564 1754.06C782.458 1790.91 774.548 1827.12 762.185 1862.05C765.935 1862.05 769.744 1862.05 773.494 1862.1C760.369 1824.55 737.869 1790.97 707.751 1764.9C705.525 1762.96 701.599 1762.38 699.49 1764.96C673.24 1796.19 650.74 1830.29 632.517 1866.79C635.564 1866.38 638.669 1865.97 641.716 1865.5C602.869 1826.01 560.33 1790.27 514.802 1758.63C508.591 1754.35 502.849 1764.55 509.001 1768.88Z"></path><path fill="#203752" d="M650.63 1857.6C659.361 1870.14 668.15 1882.68 676.88 1895.22C680.865 1900.96 683.736 1904.71 691.236 1904.47C698.912 1904.24 706.529 1903.77 714.205 1903.48C721.529 1903.13 728.853 1903.07 736.177 1902.48C743.501 1901.95 746.197 1898.09 748.599 1891.52C753.99 1876.82 759.146 1862.05 764.419 1847.29C766.939 1840.2 755.63 1837.21 753.111 1844.24C748.892 1856.08 744.615 1867.97 740.396 1879.81C739.341 1882.68 738.462 1885.67 737.291 1888.48C736.001 1891.52 734.419 1890.82 731.255 1890.94C724.927 1891.23 718.599 1891.52 712.271 1891.76C706.294 1892.05 700.259 1892.29 694.283 1892.58C693.228 1892.64 691.294 1893.11 690.298 1892.76C688.833 1892.29 688.482 1891.41 687.544 1890.12C685.845 1887.66 684.146 1885.2 682.388 1882.74C675.181 1872.36 667.916 1862.05 660.708 1851.68C656.49 1845.59 646.294 1851.39 650.63 1857.6Z"></path><path fill="#203752" d="M680.511 1906.29C669.788 1982.17 659.065 2058.11 648.343 2133.99 647.288 2141.37 658.597 2144.47 659.651 2137.03 670.374 2061.15 681.097 1985.22 691.819 1909.34 692.874 1901.95 681.565 1898.79 680.511 1906.29zM736.178 1899.55C738.58 2006.13 745.201 2112.66 756.217 2218.71 759.322 2248.48 762.721 2278.24 766.471 2307.95 767.408 2315.45 778.717 2312.4 777.838 2305.02 764.654 2200.2 755.689 2094.9 750.943 1989.38 749.596 1959.49 748.6 1929.61 747.955 1899.67 747.721 1892.11 736.002 1892.05 736.178 1899.55zM873.105 1985.16C882.539 2067.95 885.469 2151.39 881.894 2234.65 881.602 2242.21 893.32 2242.21 893.613 2234.71 897.187 2151.45 894.199 2068.01 884.824 1985.22 884.004 1977.78 872.227 1977.66 873.105 1985.16z"></path><path fill="#203752" d="M360.406 1881.21C504.254 1910.39 584.645 2049.73 659 2162.52 680.68 2195.45 702.418 2228.38 724.098 2261.31 742.906 2289.84 760.836 2320.14 785.328 2344.22 832.203 2390.21 899.176 2398.71 961.754 2402.52 1040.27 2407.32 1123.24 2412.66 1197.71 2382.36 1204.62 2379.55 1201.75 2368.18 1194.78 2371 1127.87 2398.18 1054.57 2395.78 983.785 2392.03 921.266 2388.69 850.484 2385.94 800.797 2342.58 774.547 2319.67 756.383 2289.08 737.457 2260.31 715.777 2227.38 694.039 2194.45 672.359 2161.52 632.574 2101.11 594.371 2038.53 545.973 1984.45 497.516 1930.25 435.875 1884.55 363.453 1869.84 356.07 1868.38 353.023 1879.69 360.406 1881.21zM361.46 2256.5C428.433 2337.12 495.581 2418.04 570.933 2491.11 607.671 2526.73 646.109 2561.95 688.648 2590.54 730.308 2618.55 776.714 2636.07 826.226 2644.21 882.652 2653.47 940.015 2652.3 996.968 2650.83 1004.53 2650.66 1004.59 2638.94 997.027 2639.12 897.534 2641.69 793.941 2642.51 706.46 2588.14 663.511 2561.48 625.366 2526.85 588.862 2492.1 551.714 2456.77 516.558 2419.39 482.515 2381.07 443.96 2337.59 406.812 2292.89 369.663 2248.18 364.917 2242.38 356.714 2250.7 361.46 2256.5zM1889.47 1620.94C1904.94 1687.5 1926.67 1752.48 1954.39 1814.94 1979.35 1871.14 2008.18 1926.92 2046.79 1975.08 2083.59 2020.96 2130.7 2057.82 2187.94 2073.75 2250.29 2091.16 2316.73 2085.24 2379.43 2073.11 2456.95 2058.11 2533 2033.32 2612.46 2031.1 2620.01 2030.86 2620.07 2019.14 2612.51 2019.38 2480.27 2023.07 2352.94 2090.98 2219.41 2068.71 2159.76 2058.81 2109.31 2028.05 2069.17 1983.46 2029.1 1938.93 2000.03 1885.2 1974.6 1831.29 1942.44 1763.03 1917.83 1691.43 1900.72 1618.01 1899.08 1610.63 1887.77 1613.62 1889.47 1620.94z"></path><path fill="#203752" d="M2140.43 1883.38C2114.77 1920.71 2094.03 1961.08 2078.26 2003.5 2075.63 2010.59 2086.99 2013.58 2089.57 2006.55 2104.98 1965.06 2125.55 1925.63 2150.57 1889.18 2154.9 1882.97 2144.71 1877.17 2140.43 1883.38zM1866.97 2258.02C1891.93 2297.11 1924.86 2330.62 1963.42 2356.4 2004.78 2384.06 2051.6 2400.99 2100.53 2409.2 2156.54 2418.57 2213.79 2419.1 2270.39 2416.23 2323.71 2413.53 2377.44 2409.37 2430.23 2401.34 2484.96 2393.02 2539.63 2377.97 2585.68 2346.15 2591.83 2341.87 2586.03 2331.73 2579.82 2336.01 2540.1 2363.43 2493.92 2378.08 2446.81 2386.75 2396.78 2395.95 2345.56 2399.7 2294.88 2403.1 2191.76 2409.96 2078.9 2410.72 1986.85 2357.22 1942.62 2331.5 1904.76 2295.35 1877.22 2252.22 1873.06 2245.84 1862.87 2251.64 1866.97 2258.02zM2311.23 1751.14C2300.1 1764.38 2288.96 1777.62 2277.77 1790.86 2268.46 1801.94 2256.56 1813.07 2251.23 1826.78 2245.9 1840.55 2246.6 1856.31 2245.37 1870.79 2243.85 1888.36 2241.74 1905.88 2238.98 1923.29 2238.16 1928.62 2244.49 1933.6 2248.83 1928.91 2279.71 1895.69 2303.55 1857.08 2327.05 1818.52 2323.42 1817.52 2319.73 1816.59 2316.09 1815.59 2318.32 1860.47 2320.49 1905.42 2322.71 1950.3 2322.89 1953.7 2326.29 1957.39 2330.04 1955.98 2393.55 1932.25 2457.13 1908.52 2520.64 1884.85 2527.68 1882.21 2524.75 1870.84 2517.71 1873.48 2454.2 1897.21 2390.62 1920.94 2327.11 1944.61 2329.57 1946.49 2331.97 1948.42 2334.43 1950.3 2332.21 1905.42 2330.04 1860.47 2327.81 1815.59 2327.52 1809.79 2320.02 1807.5 2316.85 1812.66 2293.89 1850.34 2270.68 1888.19 2240.51 1920.65 2243.79 1922.52 2247.07 1924.4 2250.35 1926.27 2252.75 1911.1 2254.75 1895.81 2256.27 1880.51 2257.73 1865.51 2256.85 1849.05 2261.01 1834.46 2265.12 1820.22 2277.77 1808.91 2287.09 1797.9 2297.93 1785 2308.77 1772.17 2319.61 1759.28 2324.41 1753.6 2316.09 1745.34 2311.23 1751.14zM1680.88 1379.06C1689.55 1380.88 1697.69 1384.63 1704.37 1390.49 1711.7 1396.94 1716.09 1405.2 1720.43 1413.75 1729.39 1431.39 1740.94 1447.27 1755.82 1460.33 1761.44 1465.31 1769.71 1456.99 1764.02 1452.01 1756.41 1445.28 1749.37 1437.83 1743.46 1429.63 1737.36 1421.19 1732.79 1411.99 1727.93 1402.85 1718.61 1385.16 1703.79 1371.86 1683.87 1367.76 1676.54 1366.23 1673.44 1377.54 1680.88 1379.06z"></path></svg>